# xmcd CD database file
#
# Track frame offsets:
#	150
#	17430
#	31940
#	46375
#	62372
#	76062
#	90585
#	106980
#	126940
#	140917
#
# Disc length: 2043 seconds
#
# Revision: 3
# Processed by: cddbd v1.5.2PL0 Copyright (c) Steve Scherf et al.
# Submitted via: CDex 1.81
#
DISCID=7607f90a
DTITLE=Holly Dunn - Cornerstone
DYEAR=1987
DGENRE=Country
TTITLE0=Cornerstone
TTITLE1=Small Towns (Are Smaller For Girls)
TTITLE2=Strangers Again
TTITLE3=Only When I Love
TTITLE4=Fewer Threads Than These
TTITLE5=Love Someone Like Me
TTITLE6=Lover's Cross
TTITLE7=Why Wyoming
TTITLE8=Wrap Me Up
TTITLE9=Little Frame House
EXTD=YEAR: 1987
EXTT0=
EXTT1=
EXTT2=
EXTT3=
EXTT4=
EXTT5=
EXTT6=
EXTT7=
EXTT8=
EXTT9=
PLAYORDER=
